# xmcd
#
# Track frame offsets:
#	150
#	28089
#	47669
#	64476
#	94022
#	113198
#	131708
#	156440
#	199197
#
# Disc length: 3157 seconds
#
# Revision: 0
# Processed by: cddbd v1.5.2PL0 Copyright (c) Steve Scherf et al.
# Submitted via: dBpowerAMP V4.0
#
DISCID=820c5309
DTITLE=Midnight Choir - Unsung Heroine
DYEAR=1900
DGENRE=
TTITLE0=Double Bank
TTITLE1=Electric Rain
TTITLE2=Where Love Resides
TTITLE3=Snow In Berlin
TTITLE4=Empty Streets
TTITLE5=Violence In The World
TTITLE6=She Cames From West Virginia
TTITLE7=Painting By Matisse
TTITLE8=Unsung Heroine
EXTD=
EXTT0=
EXTT1=
EXTT2=
EXTT3=
EXTT4=
EXTT5=
EXTT6=
EXTT7=
EXTT8=
PLAYORDER=
